<svg xmlns="http://www.w3.org/2000/svg" viewBox="0 0 1200 760" role="img" aria-label="Template contract blocks arranged on a canvas">
  <rect width="1200" height="760" fill="#eef4f2"/>
  <rect x="110" y="96" width="980" height="568" rx="14" fill="#ffffff" stroke="#bfd2cc" stroke-width="3"/>
  <rect x="166" y="154" width="350" height="92" rx="8" fill="#24312f"/>
  <rect x="560" y="154" width="474" height="92" rx="8" fill="#d84f3f"/>
  <rect x="166" y="300" width="260" height="250" rx="8" fill="#f3eadc" stroke="#d9cbbb" stroke-width="3"/>
  <rect x="470" y="300" width="260" height="250" rx="8" fill="#fff8ec" stroke="#d9cbbb" stroke-width="3"/>
  <rect x="774" y="300" width="260" height="250" rx="8" fill="#f3eadc" stroke="#d9cbbb" stroke-width="3"/>
  <path d="M426 424h44M730 424h44" stroke="#2d746c" stroke-width="10" stroke-linecap="round"/>
  <rect x="206" y="342" width="126" height="18" fill="#2d746c"/>
  <rect x="206" y="388" width="174" height="14" fill="#887b6f"/>
  <rect x="206" y="428" width="142" height="14" fill="#887b6f"/>
  <rect x="510" y="342" width="126" height="18" fill="#2d746c"/>
  <rect x="510" y="388" width="174" height="14" fill="#887b6f"/>
  <rect x="510" y="428" width="142" height="14" fill="#887b6f"/>
  <rect x="814" y="342" width="126" height="18" fill="#2d746c"/>
  <rect x="814" y="388" width="174" height="14" fill="#887b6f"/>
  <rect x="814" y="428" width="142" height="14" fill="#887b6f"/>
</svg>
